<?xml version="1.0" encoding="utf-8"?>
<!-- Generator: Adobe Illustrator 20.1.0, SVG Export Plug-In . SVG Version: 6.00 Build 0)  -->
<svg version="1.1" id="レイヤー_1" xmlns="http://www.w3.org/2000/svg" xmlns:xlink="http://www.w3.org/1999/xlink" x="0px"
	 y="0px" viewBox="0 0 35 35" style="enable-background:new 0 0 35 35;" xml:space="preserve">
<style type="text/css">
	.st0{fill:#DEB887;}
	.st1{fill:#800080;}
</style>
<circle class="st0" cx="17.5" cy="17.5" r="17.5"/>
<g id="OPt-2_4_">
	<g id="prog2_pro3_Mobile-Portrait_opt2-Copy-2_4_" transform="translate(-93.000000, -18.000000)">
		<g id="nav_4_">
			<g id="Group-6_8_">
				<g id="ic_onCampus_1_" transform="translate(96.000000, 20.000000)">
					<path class="st1" d="M26,7.5v2.1h-5.3L17,14.9h2.6V17H18l4,8.5h-2.3l-1-2.1H9.3l-1.1,2.1H5.8l4.4-8.5H10c-0.5,0-0.9-0.3-1-0.7
						L5.6,6.2l1-0.4C7.2,5.7,7.8,6,8,6.6l2.8,8.4h4.7l3.7-5.3h-3.8V7.5H26L26,7.5z M12.7,17.1l-2.2,4.3h7.1l-2-4.3
						C15.6,17.1,12.7,17.1,12.7,17.1z"/>
				</g>
			</g>
		</g>
	</g>
</g>
</svg>
